<svg xmlns="http://www.w3.org/2000/svg" xmlns:xlink="http://www.w3.org/1999/xlink" width="500" zoomAndPan="magnify" viewBox="0 0 375 374.999991" height="500" preserveAspectRatio="xMidYMid meet" version="1.0"><defs><g/><clipPath id="3de6ab61d5"><path d="M 116.664062 76.050781 L 249 76.050781 L 249 231 L 116.664062 231 Z M 116.664062 76.050781 " clip-rule="nonzero"/></clipPath><clipPath id="5ea389d73a"><rect x="0" width="146" y="0" height="50"/></clipPath><clipPath id="7b60a82905"><path d="M 96 0.121094 L 122 0.121094 L 122 39 L 96 39 Z M 96 0.121094 " clip-rule="nonzero"/></clipPath><clipPath id="d40f27ea33"><rect x="0" width="124" y="0" height="49"/></clipPath></defs><g clip-path="url(#3de6ab61d5)"><path fill="#5366b4" d="M 237.476562 141.773438 L 214.496094 128.46875 L 214.496094 76.050781 L 205.875 76.050781 L 205.875 158.472656 C 205.734375 169.183594 196.316406 176.121094 186.613281 173.195312 C 179.785156 171.117188 175.074219 164.089844 175.921875 157.105469 C 176.863281 149.511719 183.316406 142.90625 190.851562 143.988281 C 195.609375 144.652344 198.011719 143.800781 199.09375 141.726562 L 199.09375 112.238281 C 198.246094 110.632812 196.550781 110.398438 193.441406 112.191406 C 192.265625 112.898438 191.039062 113.558594 189.863281 114.265625 C 180.441406 119.691406 171.023438 125.210938 161.558594 130.542969 C 158.871094 132.054688 158.636719 134.269531 158.589844 136.628906 L 158.589844 170.503906 C 158.636719 176.070312 156.894531 180.789062 152.371094 184.140625 C 147.050781 188.054688 140.929688 189.046875 135.230469 185.742188 C 129.4375 182.394531 126.988281 172.957031 129.25 166.730469 C 131.460938 160.644531 138.574219 155.597656 144.980469 157.199219 C 149.875 158.425781 151.382812 157.199219 151.808594 154.417969 L 151.808594 103.699219 C 151.808594 103.699219 155.953125 101.386719 161.933594 98.085938 L 143.707031 87.515625 C 128.871094 78.929688 116.71875 85.960938 116.71875 103.132812 L 116.71875 211.597656 C 116.71875 228.773438 128.871094 235.800781 143.707031 227.214844 L 237.476562 172.957031 C 252.359375 164.417969 252.359375 150.359375 237.476562 141.773438 Z M 237.476562 141.773438 " fill-opacity="1" fill-rule="nonzero"/></g><g transform="matrix(1, 0, 0, 1, 29, 241)"><g clip-path="url(#5ea389d73a)"><g fill="#000000" fill-opacity="1"><g transform="translate(1.238117, 40.159961)"><g><path d="M 48.109375 0 L 40.21875 0 L 36.671875 -23.4375 L 25.953125 -0.046875 L 24.0625 -0.046875 L 13.34375 -23.4375 L 9.796875 0 L 1.84375 0 L 7.484375 -35.90625 L 15.28125 -35.90625 L 24.984375 -13.90625 L 34.734375 -35.90625 L 42.53125 -35.90625 Z M 48.109375 0 "/></g></g></g><g fill="#000000" fill-opacity="1"><g transform="translate(48.316515, 40.159961)"><g><path d="M 16.265625 0.765625 C 13.660156 0.765625 11.375 0.242188 9.40625 -0.796875 C 7.445312 -1.835938 5.925781 -3.289062 4.84375 -5.15625 C 3.769531 -7.019531 3.234375 -9.203125 3.234375 -11.703125 L 3.234375 -27.703125 L 10.71875 -27.703125 L 10.71875 -12.5625 C 10.71875 -10.582031 11.203125 -9.035156 12.171875 -7.921875 C 13.148438 -6.816406 14.515625 -6.265625 16.265625 -6.265625 C 18.003906 -6.265625 19.351562 -6.828125 20.3125 -7.953125 C 21.269531 -9.078125 21.75 -10.613281 21.75 -12.5625 L 21.75 -27.703125 L 29.234375 -27.703125 L 29.234375 -11.703125 C 29.234375 -9.203125 28.691406 -7.019531 27.609375 -5.15625 C 26.535156 -3.289062 25.023438 -1.835938 23.078125 -0.796875 C 21.128906 0.242188 18.859375 0.765625 16.265625 0.765625 Z M 16.265625 0.765625 "/></g></g></g><g fill="#000000" fill-opacity="1"><g transform="translate(77.85555, 40.159961)"><g><path d="M 13.4375 0.765625 C 11.113281 0.765625 9.078125 0.359375 7.328125 -0.453125 C 5.585938 -1.273438 4.226562 -2.429688 3.25 -3.921875 C 2.28125 -5.410156 1.796875 -7.144531 1.796875 -9.125 L 9.078125 -9.125 C 9.109375 -7.894531 9.550781 -6.972656 10.40625 -6.359375 C 11.269531 -5.742188 12.367188 -5.4375 13.703125 -5.4375 C 14.753906 -5.4375 15.671875 -5.664062 16.453125 -6.125 C 17.242188 -6.59375 17.640625 -7.285156 17.640625 -8.203125 C 17.640625 -9.160156 17.117188 -9.835938 16.078125 -10.234375 C 15.035156 -10.628906 13.78125 -10.945312 12.3125 -11.1875 C 11.21875 -11.351562 10.078125 -11.585938 8.890625 -11.890625 C 7.710938 -12.203125 6.628906 -12.648438 5.640625 -13.234375 C 4.648438 -13.816406 3.835938 -14.617188 3.203125 -15.640625 C 2.566406 -16.671875 2.25 -18.003906 2.25 -19.640625 C 2.25 -21.390625 2.71875 -22.929688 3.65625 -24.265625 C 4.601562 -25.597656 5.90625 -26.628906 7.5625 -27.359375 C 9.21875 -28.097656 11.175781 -28.46875 13.4375 -28.46875 C 15.664062 -28.46875 17.609375 -28.082031 19.265625 -27.3125 C 20.921875 -26.539062 22.207031 -25.460938 23.125 -24.078125 C 24.050781 -22.691406 24.515625 -21.078125 24.515625 -19.234375 L 17.390625 -19.234375 C 17.390625 -20.328125 17.019531 -21.144531 16.28125 -21.6875 C 15.550781 -22.238281 14.535156 -22.515625 13.234375 -22.515625 C 12.066406 -22.515625 11.160156 -22.265625 10.515625 -21.765625 C 9.867188 -21.273438 9.546875 -20.640625 9.546875 -19.859375 C 9.546875 -18.929688 10.054688 -18.296875 11.078125 -17.953125 C 12.109375 -17.609375 13.34375 -17.316406 14.78125 -17.078125 C 15.90625 -16.878906 17.066406 -16.632812 18.265625 -16.34375 C 19.460938 -16.050781 20.570312 -15.613281 21.59375 -15.03125 C 22.625 -14.445312 23.453125 -13.640625 24.078125 -12.609375 C 24.710938 -11.585938 25.03125 -10.238281 25.03125 -8.5625 C 25.03125 -6.6875 24.550781 -5.046875 23.59375 -3.640625 C 22.632812 -2.234375 21.28125 -1.144531 19.53125 -0.375 C 17.789062 0.382812 15.757812 0.765625 13.4375 0.765625 Z M 13.4375 0.765625 "/></g></g></g><g fill="#000000" fill-opacity="1"><g transform="translate(101.855824, 40.159961)"><g><path d="M 3.59375 -31.390625 L 3.59375 -38.375 L 11.078125 -38.375 L 11.078125 -31.390625 Z M 3.59375 0 L 3.59375 -27.703125 L 11.078125 -27.703125 L 11.078125 0 Z M 3.59375 0 "/></g></g></g><g fill="#000000" fill-opacity="1"><g transform="translate(113.599058, 40.159961)"><g><path d="M 16.46875 0.765625 C 13.695312 0.765625 11.195312 0.117188 8.96875 -1.171875 C 6.75 -2.472656 5 -4.234375 3.71875 -6.453125 C 2.4375 -8.679688 1.796875 -11.179688 1.796875 -13.953125 C 1.796875 -16.722656 2.4375 -19.203125 3.71875 -21.390625 C 5 -23.578125 6.75 -25.300781 8.96875 -26.5625 C 11.195312 -27.832031 13.710938 -28.46875 16.515625 -28.46875 C 18.910156 -28.46875 21.085938 -28 23.046875 -27.0625 C 25.015625 -26.125 26.65625 -24.796875 27.96875 -23.078125 C 29.289062 -21.367188 30.175781 -19.390625 30.625 -17.140625 L 23.1875 -17.140625 C 22.570312 -18.503906 21.671875 -19.5625 20.484375 -20.3125 C 19.304688 -21.0625 17.96875 -21.4375 16.46875 -21.4375 C 15.132812 -21.4375 13.925781 -21.101562 12.84375 -20.4375 C 11.769531 -19.769531 10.925781 -18.875 10.3125 -17.75 C 9.695312 -16.625 9.390625 -15.34375 9.390625 -13.90625 C 9.390625 -12.46875 9.695312 -11.175781 10.3125 -10.03125 C 10.925781 -8.882812 11.769531 -7.96875 12.84375 -7.28125 C 13.925781 -6.601562 15.132812 -6.265625 16.46875 -6.265625 C 18.007812 -6.265625 19.351562 -6.664062 20.5 -7.46875 C 21.644531 -8.269531 22.539062 -9.421875 23.1875 -10.921875 L 30.734375 -10.921875 C 30.285156 -8.597656 29.394531 -6.554688 28.0625 -4.796875 C 26.726562 -3.035156 25.066406 -1.664062 23.078125 -0.6875 C 21.097656 0.28125 18.894531 0.765625 16.46875 0.765625 Z M 16.46875 0.765625 "/></g></g></g></g></g><g transform="matrix(1, 0, 0, 1, 183, 243)"><g clip-path="url(#d40f27ea33)"><g fill="#5366b4" fill-opacity="1"><g transform="translate(0.361662, 38.663296)"><g><path d="M 25.703125 -18.921875 C 27.273438 -18.109375 28.492188 -16.957031 29.359375 -15.46875 C 30.234375 -13.976562 30.671875 -12.273438 30.671875 -10.359375 C 30.671875 -8.441406 30.164062 -6.695312 29.15625 -5.125 C 28.15625 -3.550781 26.789062 -2.300781 25.0625 -1.375 C 23.332031 -0.457031 21.441406 0 19.390625 0 L 4.109375 0 L 4.109375 -35.90625 L 18.984375 -35.90625 C 21.035156 -35.90625 22.875 -35.503906 24.5 -34.703125 C 26.125 -33.898438 27.40625 -32.796875 28.34375 -31.390625 C 29.28125 -29.992188 29.75 -28.421875 29.75 -26.671875 C 29.75 -25.128906 29.390625 -23.675781 28.671875 -22.3125 C 27.953125 -20.945312 26.960938 -19.816406 25.703125 -18.921875 Z M 22.21875 -25.4375 C 22.21875 -26.570312 21.859375 -27.5 21.140625 -28.21875 C 20.421875 -28.9375 19.441406 -29.296875 18.203125 -29.296875 L 11.75 -29.296875 L 11.75 -21.640625 L 18.203125 -21.640625 C 19.441406 -21.640625 20.421875 -22 21.140625 -22.71875 C 21.859375 -23.4375 22.21875 -24.34375 22.21875 -25.4375 Z M 18.625 -7.125 C 19.914062 -7.125 20.945312 -7.5 21.71875 -8.25 C 22.488281 -9.007812 22.875 -9.988281 22.875 -11.1875 C 22.875 -12.34375 22.488281 -13.296875 21.71875 -14.046875 C 20.945312 -14.804688 19.914062 -15.1875 18.625 -15.1875 L 11.75 -15.1875 L 11.75 -7.125 Z M 18.625 -7.125 "/></g></g></g><g fill="#5366b4" fill-opacity="1"><g transform="translate(30.362255, 38.663296)"><g><path d="M 26.21875 -27.75 L 31.796875 -27.75 L 31.796875 -0.046875 L 25.90625 -0.046875 L 25.296875 -2.515625 C 24.097656 -1.484375 22.734375 -0.675781 21.203125 -0.09375 C 19.679688 0.476562 18.050781 0.765625 16.3125 0.765625 C 13.539062 0.765625 11.0625 0.125 8.875 -1.15625 C 6.6875 -2.4375 4.957031 -4.175781 3.6875 -6.375 C 2.425781 -8.582031 1.796875 -11.09375 1.796875 -13.90625 C 1.796875 -16.675781 2.425781 -19.160156 3.6875 -21.359375 C 4.957031 -23.566406 6.6875 -25.300781 8.875 -26.5625 C 11.0625 -27.832031 13.539062 -28.46875 16.3125 -28.46875 C 18.09375 -28.46875 19.75 -28.164062 21.28125 -27.5625 C 22.820312 -26.96875 24.191406 -26.140625 25.390625 -25.078125 Z M 16.921875 -6.3125 C 18.359375 -6.3125 19.648438 -6.632812 20.796875 -7.28125 C 21.941406 -7.9375 22.835938 -8.835938 23.484375 -9.984375 C 24.140625 -11.128906 24.46875 -12.4375 24.46875 -13.90625 C 24.46875 -15.34375 24.140625 -16.632812 23.484375 -17.78125 C 22.835938 -18.925781 21.941406 -19.832031 20.796875 -20.5 C 19.648438 -21.164062 18.359375 -21.5 16.921875 -21.5 C 15.453125 -21.5 14.15625 -21.164062 13.03125 -20.5 C 11.90625 -19.832031 11.015625 -18.925781 10.359375 -17.78125 C 9.710938 -16.632812 9.390625 -15.34375 9.390625 -13.90625 C 9.390625 -12.4375 9.710938 -11.132812 10.359375 -10 C 11.015625 -8.875 11.90625 -7.976562 13.03125 -7.3125 C 14.15625 -6.644531 15.453125 -6.3125 16.921875 -6.3125 Z M 16.921875 -6.3125 "/></g></g></g><g fill="#5366b4" fill-opacity="1"><g transform="translate(62.824521, 38.663296)"><g><path d="M 19.390625 -28.375 C 22.535156 -28.375 25.019531 -27.320312 26.84375 -25.21875 C 28.675781 -23.113281 29.59375 -20.300781 29.59375 -16.78125 L 29.59375 0 L 22.109375 0 L 22.109375 -15.59375 C 22.109375 -19.726562 20.5 -21.796875 17.28125 -21.796875 C 15.375 -21.796875 13.863281 -21.144531 12.75 -19.84375 C 11.632812 -18.550781 11.078125 -16.789062 11.078125 -14.5625 L 11.078125 0 L 3.59375 0 L 3.59375 -27.703125 L 8.71875 -27.703125 L 10.203125 -24.265625 C 11.234375 -25.523438 12.550781 -26.523438 14.15625 -27.265625 C 15.757812 -28.003906 17.503906 -28.375 19.390625 -28.375 Z M 19.390625 -28.375 "/></g></g></g><g clip-path="url(#7b60a82905)"><g fill="#5366b4" fill-opacity="1"><g transform="translate(92.773829, 38.663296)"><g><path d="M 29.03125 0 L 19.953125 0 L 11.078125 -13.234375 L 11.078125 0 L 3.59375 0 L 3.59375 -37.703125 L 11.078125 -37.703125 L 11.078125 -15.390625 L 19.390625 -27.703125 L 28.015625 -27.703125 L 18.671875 -14.515625 Z M 29.03125 0 "/></g></g></g></g></g></g></svg>